<svg width="959" height="957" viewBox="0 0 959 957" fill="none" xmlns="http://www.w3.org/2000/svg">
<path fill-rule="evenodd" clip-rule="evenodd" d="M351.767 349.109C351.712 336.765 329.936 322.883 320.634 315.727C302.242 301.571 283.113 288.5 264.162 275.22C245.21 261.939 226.207 248.695 208.136 234.115C196.402 224.651 182.614 213.991 174.657 200.477C157.704 171.677 211.154 175.954 225 175.324C260.222 173.715 300.622 174.449 333.637 159.452C353.346 150.499 361.205 135.483 356.972 113.599C355.608 106.482 351.569 98.2917 354.99 91.3581C358.643 83.953 367.048 79.6798 374.024 76.8143C399.466 66.3743 428.719 65.1647 455.639 63.8543C484.667 62.4143 513.968 62.8356 542.791 62.724C555.012 62.6772 567.776 58.044 579.415 54.2784C594.672 49.3428 609.749 43.7989 624.88 38.4385C658.168 26.6738 692.47 14.2827 727.688 11.2947C749.744 9.42273 773.85 11.9535 790.983 28.2362C799.586 36.4117 804.088 48.5653 809.062 59.3616C815.082 72.4043 820.864 85.573 827.273 98.4105C847.92 139.756 877.398 180.159 925.244 182.189C932.482 182.495 939.591 181.498 946.795 181.311C951.383 181.196 955.466 182.366 957.171 187.431C961.459 200.135 947.982 220.19 942.456 230.27C930.357 252.335 916.713 273.409 903.932 295.03C895.476 309.329 880.84 328.87 880.686 346.244C880.55 361.723 900.061 372.912 910.683 380.537C920.636 387.676 938.67 397.666 939.762 412.188C940.29 419.229 935.89 425.065 931.295 429.594C923.242 437.514 913.964 443.101 906.719 452.137C894.838 466.962 884.912 487.359 886.526 507.335C887.645 521.177 895.128 530.242 904.649 538.907C908.65 542.55 911.897 545.128 912.108 551.043C912.45 560.435 908.964 570.374 906.091 579.083C895.817 610.248 881.225 640.383 864.992 668.52C856.881 682.582 848.118 696.6 837.363 708.595C830.319 716.472 820.819 725.846 810.075 725.836C797.635 725.836 784.472 721.098 772.38 717.556C749.795 710.935 727.484 703.282 705.261 695.43C653.868 677.265 602.959 657.628 552.533 636.52C517.014 621.627 480.741 606.713 447.347 586.913C440.834 583.024 434.687 578.491 428.989 573.373C422.9 567.998 415.345 565.594 407.684 563.801C360.134 552.673 308.041 561.216 260.294 566.573C248.174 567.93 236.055 569.294 223.901 570.245C213.453 571.062 200.945 573.406 190.791 569.885C170.782 562.955 188.273 537.413 195.668 527.005C221.705 490.361 255.296 459.358 286.432 427.707C301.236 412.634 316.152 397.601 330.151 381.674C337.441 373.395 351.815 359.931 351.767 349.109Z" stroke="white"/>
<path fill-rule="evenodd" clip-rule="evenodd" d="M360.739 347.028C352.759 333.966 338.757 324.311 327.135 315.225C310.409 302.145 293.158 289.792 276.167 277.083C260.1 265.064 243.999 252.909 229.12 239.26C220.047 230.937 208.664 220.984 204.367 208.674C195.045 181.992 245.194 186.04 257.574 185.342C288.352 183.615 323.247 183.219 351.721 169.171C369.501 160.398 376.806 145.85 373.014 125.652C371.703 118.664 369.341 112.698 372.331 105.746C375.789 97.6995 383.742 92.6834 391.033 89.1426C413.872 78.0487 440.868 75.6918 465.625 73.7307C491.201 71.7048 517.849 70.2762 542.603 71.7588C552.502 72.3489 563.895 68.9988 573.692 66.4296C588.765 62.4713 603.685 57.905 618.683 53.6589C649.164 45.0228 680.438 36.7033 712.148 35.757C735.041 35.0733 758.911 38.7796 777.957 53.1047C797.26 67.6314 805.824 90.1501 816.528 111.557C835.015 148.566 859.983 193.564 902.753 201.383C909.238 202.571 915.471 201.927 921.95 202.218C925.281 202.366 929.073 202.834 930.763 206.299C935.149 215.295 923.131 231.743 919.086 238.634C907.91 257.676 895.346 275.787 883.635 294.463C874.333 309.292 862.543 325.769 858.946 343.347C854.58 364.678 883.106 379.856 893.137 394.876C910.528 420.921 877.579 435.76 861.335 448.179C842.681 462.435 827.284 488.444 844.006 510.503C850.402 518.937 858.273 523.964 861.13 534.972C865.598 552.186 862.219 571.859 858.594 588.875C853.133 614.456 844.49 639.76 832.741 662.88C824.324 679.432 810.36 705.387 789.911 703.441C776.145 702.142 762.15 697.395 748.746 693.2C728.675 686.92 708.857 679.763 689.145 672.329C643.642 655.215 598.64 636.345 554.522 615.59C524.42 601.423 440.451 543.528 434.133 541.463C415.295 535.31 393.876 536.393 374.454 537.346C348.618 538.613 322.912 541.895 297.227 544.935C285 546.375 272.712 548.134 260.421 548.843C251.672 549.347 240.183 549.779 232.52 544.414C217.563 533.946 234.227 509.995 241.118 499.862C262.23 468.797 288.936 441.896 313.976 414.39C326.264 400.885 338.74 387.402 349.895 372.814C354.394 366.923 365.672 355.096 360.739 347.028Z" stroke="white"/>
<path fill-rule="evenodd" clip-rule="evenodd" d="M371.78 340.329C349.985 314.19 319.904 294.75 293.943 272.92C280.913 261.959 267.8 250.701 256.562 237.646C250.716 230.857 243.416 222.273 242.289 212.81C239.279 187.495 284.479 190.918 298.008 189.957C324.164 188.093 353.712 186.678 377.442 173.76C391.939 165.863 399.079 152.901 396.369 135.866C395.168 128.307 393.298 121.886 396.369 114.464C399.482 106.944 405.966 101.639 412.533 97.6616C431.402 86.2227 454.852 82.5657 476.097 79.841C501.02 76.6674 526.13 75.4282 551.224 76.1336C573.203 76.7419 595.076 69.8994 616.536 65.3894C644.965 59.418 673.91 54.2025 703.001 54.9908C725.976 55.6171 749.132 60.5374 768.773 73.614C788.732 86.9318 800.731 106.865 811.55 128.375C827.904 160.892 848.286 204.466 884.165 216.816C889.383 218.616 894.247 218.814 899.629 219.127C902.243 219.278 905.618 219.325 906.915 222.201C910.035 229.126 898.503 242.552 895.284 247.231C885.012 262.168 873.875 276.433 863.347 291.172C853.518 304.933 842.812 319.273 836.706 335.398C826.99 361.08 858.053 376.096 857.183 400.568C856.641 415.761 842.849 426.657 831.928 434.194C818.481 443.462 799.12 449.556 792.39 466.47C787.377 479.068 795.243 486.4 801.301 495.96C811.567 512.157 812.267 534.113 811.198 552.862C809.758 578.198 804.13 603.909 794.551 627.197C790.209 637.754 784.892 648.736 777.063 656.935C769.729 664.62 762.787 666.589 752.985 665.016C722.98 660.193 692.684 646.749 663.91 634.741C627.757 619.653 592.103 602.995 557.514 584.253C533.928 571.471 509.809 557.948 489.107 540.29C483.711 535.686 478.186 530.683 474.241 524.611C471.258 520.047 469.991 516.278 464.964 513.672C450.064 505.951 429.338 507.971 413.372 508.773C387.844 510.051 362.439 513.453 337.068 516.516C322.263 518.315 294.373 523.977 282.551 510.397C272.346 498.67 284.66 478.675 290.95 468.345C306.86 442.221 327.327 419.292 346.317 395.684C355.019 384.864 364.063 373.962 371.251 361.933C373.087 358.866 376.029 354.802 376.534 351.077C377.1 346.808 374.455 343.55 371.78 340.329Z" stroke="white"/>
<path fill-rule="evenodd" clip-rule="evenodd" d="M373.653 346.414C353.515 323.303 329.252 304.316 307.632 282.688C297.938 272.991 288.149 262.819 280.762 250.989C276.789 244.628 272.57 236.62 273.666 228.713C276.809 206.02 313.984 208.069 329.003 206.74C351.32 204.788 376.958 202.821 396.69 190.584C409.617 182.57 414.464 170.733 412.05 155.467C409.46 139.091 415.252 127.204 428.435 118.069C444.962 106.625 465.825 101.96 485.014 98.6464C508.135 94.6728 531.548 92.9114 554.968 93.3837C577.745 93.8447 599.813 89.8175 622.44 87.1988C652.44 83.7299 683.403 82.0188 713.065 89.1295C738.89 95.3216 762.217 108.967 779.704 130.068C797.969 152.092 807.011 179.839 821.842 204.204C831.092 219.402 843.991 239.505 861.276 245.413C867.042 247.383 877.548 244.725 872.943 254.418C870.312 259.962 865.386 264.825 861.495 269.357C855.207 276.68 848.712 283.801 842.319 291.024C828.692 306.419 814.1 322.143 803.888 340.373C791.019 363.326 810.148 380.991 807.816 404.265C806.564 416.79 798.31 426.786 789.579 434.638C783.93 439.725 777.748 444.13 771.437 448.24C764.845 452.534 757.046 455.805 751.298 461.356C743.106 469.255 746.662 478.606 748.198 488.818C750.902 506.765 751.496 524.996 749.967 543.096C748.096 565.282 743.71 588.101 734.47 608.263C730.876 616.112 726.322 624.433 719.56 629.695C712.798 634.958 705.804 634.598 698.056 633.013C675.074 628.33 652.14 617.434 630.338 607.106C603.052 594.178 576.301 579.73 550.756 563.293C533.122 551.946 515.431 539.688 500.678 524.303C496.388 519.826 492.305 515.031 489.005 509.679C486.738 506.008 485.523 501.271 482.239 498.512C471.965 489.899 451.338 492.471 439.289 492.972C415.242 493.97 391.574 498.714 367.557 499.866C354.45 500.497 333.922 502.082 324.296 490.306C315.244 479.237 323.443 461.802 328.853 451.136C339.486 430.164 353.771 411.48 366.574 391.985C371.838 383.963 377.606 375.57 381.016 366.41C384.047 358.247 378.814 352.34 373.653 346.414Z" stroke="white"/>
<path fill-rule="evenodd" clip-rule="evenodd" d="M378.607 346.792C362.577 326.455 343.252 308.401 327.106 287.733C317.656 275.629 301.38 255.281 308.689 238.217C316.707 219.465 344.657 218.955 360.814 217.444C380.043 215.645 402.624 213.189 419.08 201.48C424.285 197.779 428.719 192.88 430.598 186.427C432.61 179.521 430.411 173.478 430.124 166.564C429.524 152.061 437.73 140.418 448.589 132.422C463.937 121.116 483.128 115.771 501.256 112.045C521.793 107.842 542.671 105.769 563.592 105.858C583.585 105.93 603.366 105.462 623.38 104.923C649.553 104.203 676.094 105.365 701.483 112.699C726.493 119.929 749.231 133.479 767.093 153.41C784.518 172.859 796.274 196.632 806.571 220.847C812.413 234.591 822.283 255.13 836.219 262.072C842.416 265.162 848.497 264.95 841.908 272.985C833.61 283.104 822.427 291.222 812.815 299.876C798.951 312.365 784.739 325.099 773.102 339.947C765.671 349.429 762.359 358.63 762.87 370.906C763.266 380.259 765.06 389.514 764.153 398.902C762.028 420.937 745.579 436.048 731.036 450.12C721.68 459.17 713.137 466.072 708.321 478.946C702.625 494.161 700.234 510.715 696.428 526.513C692.247 543.861 687.417 561.907 678.291 577.187C670.166 590.791 660.286 596.892 645.498 593.226C622.432 587.514 599.696 573.443 579.219 560.425C558.377 547.181 537.893 532.289 520.621 514.085C511.297 504.254 504.932 492.712 496.651 482.151C486.235 468.892 462.672 473.914 448.668 475.036C425.421 476.899 352.273 490.841 359.023 445.684C361.84 426.836 372.935 409.441 381.049 392.809C384.412 385.906 389.279 377.622 390.039 369.712C390.868 361.097 383.426 352.914 378.607 346.792Z" stroke="white"/>
<path fill-rule="evenodd" clip-rule="evenodd" d="M387.07 348.519C374.821 330.089 360.16 312.678 349.649 292.772C342.831 279.881 336.135 262.657 344.931 249.017C354.859 233.625 376.75 230.037 392.835 228.075C409.408 226.056 429.192 224.358 442.738 212.687C447.047 208.969 450.6 203.956 451.261 197.953C451.899 192.195 450.098 186.436 450.695 180.574C452.032 167.409 459.597 156.562 469.351 148.695C498.204 125.421 541.148 120.246 575.961 119.638C593.386 119.335 611.319 120.923 628.856 122.06C651.613 123.535 674.405 126.702 696.109 134.336C742.254 150.559 773.183 186.541 794.785 231.314C801.583 245.408 806.785 260.656 817.44 271.982C822.932 277.83 821.732 282.03 816.117 287.363C807.338 295.698 796.629 302.068 786.885 309.025C773.026 318.918 758.871 328.959 746.614 340.81C738.166 348.98 732.169 356.85 730.348 369.101C729.049 377.836 729.353 386.736 728.572 395.524C727.086 412.219 721.996 428.788 712.985 442.637C705.825 453.613 697.302 463.59 688.492 473.101C677.04 485.485 667.354 498.067 658.657 512.765C647.127 532.22 630.926 568.108 603.767 558.611C573.813 548.131 545.737 521.503 526.518 495.702C520.065 487.04 514.767 476.416 506.062 470.028C493.032 460.48 479.811 460.815 464.312 460.854C441.108 460.908 390.616 466.224 390.07 429.544C389.856 415.012 395.815 401.271 398.669 387.293C401.887 371.638 395.437 361.079 387.07 348.519Z" stroke="white"/>
<path fill-rule="evenodd" clip-rule="evenodd" d="M396.194 350.162C384.077 326.142 356.907 286.672 377.572 259.962C388.488 245.846 407.796 240.542 423.992 237.38C437.026 234.823 452.745 233.863 462.593 223.024C469.832 215.054 466.618 203.456 469.392 193.48C472.834 181.112 480.734 170.992 490.442 163.385C517.572 142.127 555.293 135.603 587.928 134.215C621.822 132.777 659.168 139.505 691.062 152.449C730.83 168.593 760.624 199.162 781.46 237.873C785.304 245.019 788.797 252.352 792.488 259.584C794.968 264.436 798.645 269.129 800.6 274.232C803.854 282.741 800.02 289.697 793.873 295.242C785.031 303.226 774.17 308.908 764.09 314.9C750.305 323.1 736.213 331.152 723.391 340.772C714.774 347.246 705.755 354.219 702.671 365.45C700.566 373.111 700.129 381.224 700.205 389.158C700.368 406.168 699.522 419.924 691.997 435.504C679.614 461.081 660.573 484.08 640.457 503.216C624.67 518.234 599.69 541.564 576.688 531.523C556.05 522.532 543.978 501.012 530.381 483.612C523.77 475.154 516.344 467.429 507.618 461.412C496.617 453.827 486.26 450.645 473.226 449.404C451.289 447.314 418.21 446.771 411.429 419.007C408.925 408.761 410.354 398.148 409.041 387.769C407.325 374.046 402.307 362.278 396.194 350.162Z" stroke="white"/>
<path fill-rule="evenodd" clip-rule="evenodd" d="M408.793 351.052C400.165 324.769 388.83 291.646 409.669 268.287C419.763 256.971 433.962 250.645 447.703 245.918C457.545 242.53 473.172 241.532 479.206 231.116C483.638 223.451 484.251 212.877 488.26 204.665C493.769 193.374 502.114 184.074 511.905 176.794C537.411 157.824 570.631 150.494 600.927 148.395C666.755 143.84 733.734 180.114 768.96 239.793C779.463 257.583 793.02 276.517 776.047 294.692C757.516 314.519 729.599 323.808 707.482 337.896C699.031 343.275 688.262 349.741 683.547 359.48C680.711 365.334 680.517 372.679 680.387 379.124C680.046 395.538 678.754 410.299 672.499 425.615C662.838 449.284 647.433 471.12 629.975 489.007C614.751 504.603 593.039 522.933 570.928 511.689C553.975 503.048 543.223 484.708 530.051 471.188C515.392 456.132 497.263 445.986 477.355 441.028C457.988 436.218 436.747 432.974 426.54 412.539C423.039 405.529 419.381 396.452 418.069 388.693C415.95 375.901 412.848 363.312 408.793 351.052Z" stroke="white"/>
<path fill-rule="evenodd" clip-rule="evenodd" d="M422.841 351.237C418.85 324.697 418.406 297.023 436.952 276.106C445.607 266.348 456.548 259.415 467.612 253.134C475.753 248.512 484.159 244.613 490.238 237.036C495.871 230.021 500.153 221.875 505.591 214.675C512.764 205.135 521.348 196.876 531.011 190.216C555.234 173.554 584.7 165.76 612.89 163.057C626.537 161.743 641.34 161.059 654.895 164.641C667.985 168.097 680.929 173.561 692.965 179.932C718.552 193.463 740.728 213.279 756.804 238.332C767.827 255.516 773.787 272.226 759.513 289.659C743.42 309.309 718.187 320.151 697.39 332.904C683.126 341.651 667.139 350.226 664.475 368.814C662.352 383.605 660.63 397.643 655.14 411.624C646.97 432.246 634.958 450.926 619.816 466.557C605.968 480.797 588.449 492.881 568.641 485.275C552.948 479.239 540.772 465.715 527.06 456.047C511.78 445.248 494.991 439.294 477.312 434.507C461.424 430.187 446.464 423.549 436.195 409.457C434.093 406.577 431.886 403.442 430.265 400.22C428.198 396.11 428.358 392.035 427.952 387.427C426.895 375.268 424.646 363.249 422.841 351.237Z" stroke="white"/>
<path fill-rule="evenodd" clip-rule="evenodd" d="M438.331 349.068C438.672 323.859 444.418 300.034 460.156 280.388C466.884 271.984 474.918 265.062 482.321 257.361C488.282 251.152 493.915 245.384 500.769 240.268C517.028 228.153 530.242 212.477 547.521 201.69C570.587 187.268 597.008 179.297 623.224 176.11C636.026 174.552 649.25 174.008 662.201 175.767C673.325 177.278 683.978 182.581 693.86 188.007C713.229 198.636 732.036 213.743 744.612 232.855C772.339 274.991 717.673 305.626 689.615 323.567C676.711 331.819 656.994 341.377 651.709 357.724C647.93 369.402 645.628 381.278 640.762 392.596C627.691 422.989 601.158 458.736 565.799 453.977C550.669 451.944 536.878 443.684 522.754 438.139C508.21 432.428 493.199 429.244 478.082 425.751C463.954 422.488 452.694 417.844 443.569 405.395C439.208 399.449 439.593 392.332 439.204 385.039C438.57 373.058 438.178 361.009 438.331 349.068Z" stroke="white"/>
<path fill-rule="evenodd" clip-rule="evenodd" d="M452.436 345.839C458.116 307.788 479.214 266.248 510.236 244.15C546.726 218.156 586.258 196.266 629.857 189.974C650.07 187.056 672.212 185.62 691.285 195.162C705.801 202.419 722.662 213.266 730.65 228.521C750.195 265.834 706.723 295.538 681.955 312.8C668.621 322.093 651.647 331.149 641.597 344.72C635.766 352.588 632.789 362.997 628.081 371.639C613.815 397.827 590.331 418.95 561.078 422.728C547.552 424.473 533.928 422.314 520.504 420.598C506.764 418.842 492.852 417.889 479.197 415.439C468.297 413.481 455.45 410.168 451.436 397.86C446.373 382.349 450.118 361.378 452.436 345.839Z" stroke="white"/>
<path fill-rule="evenodd" clip-rule="evenodd" d="M466.267 339.726C474.552 303.952 492.095 269.057 521.588 247.701C537.228 236.376 555.383 228.559 572.814 220.835C592.572 212.081 613.216 205.287 634.3 201.916C660.553 197.718 703.07 193.933 716.786 225.494C730.399 256.821 695.999 284.548 675.656 300.348C662.613 310.47 648.655 319.76 636.194 330.825C629.437 336.824 624.231 343.756 618.513 350.792C602.709 370.286 580.179 385.719 557.215 393.958C534.958 401.945 507.424 405.481 483.93 402.841C473.793 401.707 466.547 397.879 463.481 386.998C459.233 371.871 462.842 354.504 466.267 339.726Z" stroke="white"/>
<path fill-rule="evenodd" clip-rule="evenodd" d="M480.01 330.091C488.241 298.593 505.993 269.825 531.887 250.92C560.912 229.728 598.288 217.952 632.64 211.964C650.9 208.784 690.47 200.16 699.777 224.841C709.084 249.522 682.178 273.844 666.693 287.234C647.898 303.459 627.634 319.126 607.394 333.684C589.809 346.342 571.044 359.283 551.997 369.058C541.255 374.603 530.064 379.131 518.558 382.587C510.038 385.126 499.204 388.912 490.272 387.023C467.742 382.25 476.074 345.151 480.01 330.091Z" stroke="white"/>
<path fill-rule="evenodd" clip-rule="evenodd" d="M496.975 320.659C515.033 261.093 572.247 231.798 627.334 221.587C640.135 219.216 676.02 210.67 683.175 228.866C690.109 246.508 668.057 267.431 657.733 277.343C625.743 308.06 586.22 330.834 548.768 353.397C537.078 360.439 515.994 375.722 501.493 368.672C485.748 361.004 493.234 333.01 496.975 320.659Z" stroke="white"/>
<path fill-rule="evenodd" clip-rule="evenodd" d="M515.472 309.194C531.177 265.328 576.854 240.17 618.849 231.876C629.135 229.846 655.259 223.528 663.05 235.769C670.259 247.093 653.054 263.5 646.617 270.02C632.287 284.539 615.304 296.5 598.527 307.996C583.014 318.632 567.333 329.535 551.01 338.53C542.413 343.266 526.288 353.369 516.518 346.058C506 338.192 511.985 318.934 515.472 309.194Z" stroke="white"/>
<path fill-rule="evenodd" clip-rule="evenodd" d="M535.856 296.378C547.825 267.732 579.883 249.13 608.161 242.949C615.77 241.289 632.216 236.984 638.636 244.634C644.545 251.679 635.021 262.008 630.794 266.778C612.06 287.922 584.626 306.808 559.49 318.407C553.17 321.324 541.809 327.048 535.308 321.162C528.64 315.117 533.106 302.956 535.856 296.378Z" stroke="white"/>
<path fill-rule="evenodd" clip-rule="evenodd" d="M557.479 284.345C564.224 270.121 581.852 259.389 596.454 255.972C606.731 253.57 619.083 255.645 610.127 268.027C601.23 280.315 584.722 291.537 570.729 296.513C560.054 300.307 551.687 296.563 557.479 284.345Z" stroke="white"/>
<path fill-rule="evenodd" clip-rule="evenodd" d="M10.5316 382.866C10.099 354.764 -4.05367 325.557 2.9358 296.922C8.6752 273.404 37.5698 271.441 54.9038 260.786C68.6783 252.321 76.4955 237.326 83.9448 222.938C90.6379 210.022 96.6498 196.717 103.701 184.012C108.265 175.799 116.102 159.671 126.001 159.38C135.477 159.099 144.166 171.667 149.67 179.096C156.847 188.78 163.21 199.104 170.179 208.943C181.923 225.538 196.015 237.822 212.15 249.448C230.511 262.676 249.176 275.453 268.144 287.778C282.109 296.879 296.17 305.912 309.593 315.913C318.014 322.188 336.598 333.961 336.683 345.529C336.724 351.049 331.768 357.162 328.426 361.574C322.772 369.043 316.327 375.872 309.863 382.553C297.822 394.999 285.27 406.88 272.855 418.905C256.74 434.512 241.347 449.863 227.181 467.58C212.535 485.92 198.542 504.863 184.263 523.548C174.593 536.206 164.933 550.421 150.985 558.188C133.515 567.897 119.175 557.66 101.507 557.541C86.3087 557.437 87.4293 520.269 85.498 509.934C83.5599 499.473 79.2886 489.735 77.6332 479.249C75.569 466.16 75.5418 452.768 75.0342 439.539C74.4177 423.357 74.1725 407.952 57.7854 401.781C48.4593 398.275 38.3702 397.538 28.7171 395.438C22.4634 394.075 10.6678 391.745 10.5316 382.866Z" stroke="white"/>
<path fill-rule="evenodd" clip-rule="evenodd" d="M18.0033 377.867C16.4102 354.31 6.99833 324.159 15.8985 299.842C23.5024 279.062 47.2828 276.368 63.2956 265.452C76.5145 256.449 82.3991 241.715 89.0068 227.241C94.308 215.63 99.4489 203.907 105.467 192.667C109.901 184.384 116.673 170.4 125.894 168.686C134.183 167.144 143.073 179.49 147.726 185.771C154.515 194.94 160.321 204.898 166.318 214.647C176.856 231.772 187.646 247.171 203.068 259.751C218.559 272.385 235.507 281.831 252.635 291.663C266.035 299.356 279.366 307.272 292.097 316.153C301.581 322.765 315.216 331.228 319.555 343.02C322.99 352.347 305.569 367.826 300.431 373.289C289.856 384.522 278.65 395.067 267.423 405.547C253.737 418.318 239.614 429.486 227.527 444.054C205.91 470.099 187.84 502.534 160.024 521.891C143.247 533.567 124.577 536.553 105.917 534.806C98.5279 534.114 96.754 523.105 95.8227 516.684C94.2739 506.016 94.0795 495.165 92.8889 484.454C91.7734 474.428 89.2968 464.902 87.3011 455.071C85.2816 445.109 84.7154 434.903 83.228 424.873C82.307 418.646 81.3961 411.4 77.3673 406.394C73.1987 401.211 66.3214 399.04 60.3107 397.39C49.0226 394.322 19.129 394.491 18.0033 377.867Z" stroke="white"/>
<path fill-rule="evenodd" clip-rule="evenodd" d="M27.6199 368.006C24.9406 346.382 21.1897 319.45 32.1046 299.528C41.0263 283.238 60.054 279.724 73.6447 269.11C84.9486 260.284 89.2184 246.246 94.8294 233.201C99.4336 222.5 104.062 211.753 109.642 201.571C113.874 193.849 119.328 183.379 127.731 180.685C134.915 178.383 143.032 188.695 147.015 193.827C153.796 202.575 159.326 212.376 164.817 222.047C173.8 237.873 182.067 254.777 194.852 267.65C207.275 280.141 222.033 287.515 237.068 295.805C248.583 302.157 260.027 308.753 270.877 316.328C279.208 322.14 289.533 329.028 293.874 338.699C297.629 347.04 287.99 356.913 283.174 362.797C275.222 372.509 266.396 381.418 257.693 390.363C248.3 400.013 237.897 408.915 228.808 418.802C209.695 439.609 194.425 462.646 170.868 478.587C155.612 488.913 135.083 498.293 117.048 496.606C104.079 495.39 104.932 465.099 103.686 455.42C101.638 439.595 97.6827 422.967 91.3993 408.389C86.0033 395.898 73.1805 392.046 61.385 389.244C53.9958 387.485 46.2516 386.536 39.1047 383.817C30.8315 380.666 28.7428 377.069 27.6199 368.006Z" stroke="white"/>
<path fill-rule="evenodd" clip-rule="evenodd" d="M36.59 357.87C34.9948 339.588 35.3535 317.97 45.6867 302.156C54.7423 288.304 70.8655 284.657 82.3328 273.745C91.2825 265.232 94.7975 251.351 99.6106 240.093C105.493 226.328 113.735 200.904 128.574 195.724C142.378 190.908 156.814 221.671 161.811 230.844C169.723 245.363 176.339 261.286 185.935 274.694C194.198 286.237 205.269 292.618 217.02 299.476C232.002 308.234 254.748 318.619 262.759 335.689C268.73 348.408 249.314 367.317 242.683 376.13C235.749 385.335 230.526 396.247 223.37 405.128C212.077 419.143 193.778 430.426 178.669 439.037C163.98 447.413 144.906 456.683 128.243 456.131C117.291 455.771 115.208 437.922 112.871 429.203C109.524 416.809 105.073 405.702 95.5114 397.272C85.7795 388.69 74.3088 384.646 62.2505 381.108C56.0608 379.304 49.0001 377.897 43.4629 374.254C37.345 370.29 37.2049 364.897 36.59 357.87Z" stroke="white"/>
<path fill-rule="evenodd" clip-rule="evenodd" d="M47.5195 347.333C47.608 331.539 51.0299 314.697 61.1763 302.514C69.6272 292.366 82.8551 288.974 90.945 278.6C97.3529 270.387 100.615 258.858 104.905 249.321C110.152 237.633 117.571 217.216 130.618 213.16C143.353 209.211 154.616 231.7 159.498 240.598C166.649 253.646 172.437 267.476 179.652 280.488C185.304 290.697 192.216 297.277 201.419 303.856C212.223 311.584 227.296 320.145 233.067 332.931C237.228 342.189 227.156 356.981 223.499 365.137C221.048 370.614 218.804 376.178 217.572 382.115C216.611 386.738 216.516 391.017 213.734 394.987C206.731 404.973 191.375 406.276 180.956 409.568C167.118 413.936 152.437 418.9 137.956 419.848C129.056 420.44 124.513 411.786 119.433 405.698C113.431 398.501 104.932 393.325 97.5096 387.894C87.7138 380.715 77.0532 376.25 66.0249 371.677C61.0504 369.613 55.2076 367.588 51.3533 363.485C47.3288 359.232 47.4888 353.033 47.5195 347.333Z" stroke="white"/>
<path fill-rule="evenodd" clip-rule="evenodd" d="M58.9986 337.956C60.7573 324.692 66.2379 312.014 75.4949 302.636C82.591 295.437 92.0151 291.384 97.7104 282.734C103.017 274.671 106.715 265.502 111.098 256.881C115.737 247.767 122.629 232.533 133.327 230.053C144.858 227.382 153.74 242.749 158.658 251.266C164.871 262.029 169.592 273.609 175.148 284.742C179.333 293.041 184.672 300.63 190.986 307.258C197.609 314.245 206.589 320.937 209.94 330.545C212.902 339.054 207.36 349.349 206.382 357.978C205.335 367.196 207.169 376.879 201.368 384.795C189.405 401.119 159.381 398.092 142.216 398.441C125.28 398.801 111.664 388.812 97.9592 379.309C88.9067 373.035 79.4792 367.722 70.1983 361.876C60.7368 355.911 57.4512 349.63 58.9986 337.956Z" stroke="white"/>
<path fill-rule="evenodd" clip-rule="evenodd" d="M69.6638 330.364C74.8646 311.147 91.1083 300.934 102.721 286.411C112.222 274.522 119.346 249.901 135.348 246.645C153.515 242.948 164.391 275.571 170.707 288.159C177.715 302.119 190.197 313.475 195.388 328.253C198.116 336.01 195.773 343.247 194.32 351C192.728 359.514 191.531 368.218 186.033 375.07C175.212 388.555 154.078 388.461 138.857 388.832C123.101 389.218 109.163 379.977 96.6093 370.754C83.2951 360.987 64.3367 350.071 69.6638 330.364Z" stroke="white"/>
<path fill-rule="evenodd" clip-rule="evenodd" d="M78.3747 325.153C84.2351 311.462 96.5501 300.331 106.543 289.824C114.884 281.064 123.856 263.429 136.573 262.172C151.52 260.69 160.578 279.52 166.459 291.066C172.247 302.412 180.588 314.391 183.793 326.844C187.135 339.815 178.235 357.285 169.747 366.464C160.279 376.699 144.79 380.481 131.499 380.073C117.584 379.657 104.815 371.198 94.276 362.424C83.0087 353.045 71.5593 341.047 78.3747 325.153Z" stroke="white"/>
<path fill-rule="evenodd" clip-rule="evenodd" d="M86.4575 322.575C92.0554 311.188 101.759 301.555 110.706 292.962C117.61 286.328 127.799 275.048 137.76 274.772C148.719 274.467 158.006 283.935 162.363 293.64C166.657 303.212 171.182 315.213 171.825 325.715C173.221 348.583 144.799 374.2 123.456 372.115C103.22 370.138 75.2961 345.264 86.4575 322.575Z" stroke="white"/>
<path fill-rule="evenodd" clip-rule="evenodd" d="M93.9326 321.32C101.655 306.483 120.413 285.331 137.78 284.828C157.714 284.254 162.718 307.792 160.119 324.851C157.48 342.26 134.498 367.46 116.172 364.055C98.2871 360.732 84.7802 338.916 93.9326 321.32Z" stroke="white"/>
<path fill-rule="evenodd" clip-rule="evenodd" d="M101.825 318.921C108.364 306.498 122.316 290.981 136.869 290.511C154.208 289.956 153.881 309.829 149.949 322.198C145.86 335.04 127.853 356.975 112.67 353.511C97.9069 350.13 95.5593 330.827 101.825 318.921Z" stroke="white"/>
<path fill-rule="evenodd" clip-rule="evenodd" d="M108.699 317.491C113.015 308.627 123.817 297.423 134.085 297.065C146.637 296.634 144.197 312.396 140.954 320.004C137.099 329.057 124.179 344.786 113.337 342.237C102.661 339.728 105.139 324.795 108.699 317.491Z" stroke="white"/>
<path fill-rule="evenodd" clip-rule="evenodd" d="M699.125 823.964C671.344 841.749 639.939 856.429 610.324 871.35C567.045 893.153 523.129 914.37 477.654 930.611C453.273 939.316 421.68 951.867 395.519 945.047C385.954 942.554 377.231 935.014 368.655 930.115C356.83 923.359 344.83 916.938 332.851 910.503C308.821 897.603 284.717 884.833 261.1 871.106C249.727 864.494 238.693 856.167 226.854 850.526C219.935 847.227 211.656 848.771 204.263 848.979C187.138 849.465 170.024 850.386 152.909 851.17C131.976 852.127 110.995 853.145 90.0371 852.767C80.5848 852.594 57.4348 854.364 52.2313 845.774C49.4317 841.148 56.0299 832.806 59.0886 828.946C64.7048 821.853 71.1598 815.46 77.5295 809.133C92.2604 794.499 107.905 780.564 120.999 764.218C127.727 755.815 136.542 745.548 132.15 734.077C127.717 722.49 120.038 712.457 115.352 700.91C109.958 687.622 107.721 673.794 105.174 659.704C103.288 649.29 98.8961 640.063 94.7667 630.462C90.2042 619.85 85.478 609.148 82.3102 597.957C80.2165 590.565 76.8373 577.266 84.1618 572.586C94.5689 565.931 114.084 571.32 125.947 573.28C142.342 575.986 158.618 579.432 174.968 582.4C186.838 584.558 198.749 586.925 210.817 587.177C230.27 587.583 249.789 586.177 269.191 584.867C305.118 582.443 340.788 579.155 376.836 579.155C408.418 579.155 481.401 617.706 498.485 624.494C532.584 638.045 567.591 650.891 599.859 668.92C608.588 673.801 622.023 680.305 626.616 690.352C629.45 696.543 628.148 700.122 634.831 704.112C643.949 709.554 655.632 711.691 665.725 714.126C681.98 718.047 698.361 721.368 714.691 724.918C747.72 732.08 780.524 740.181 813.416 747.976C823.359 750.332 835.389 750.854 844.869 755.005C850.979 757.671 850.345 761.027 845.616 765.078C837.319 772.186 825.691 776.132 815.891 780.186C801.532 786.125 786.938 791.424 772.336 796.647C757.735 801.87 743.059 806.931 728.451 812.165C718.8 815.611 707.797 818.414 699.125 823.964Z" stroke="white"/>
<path fill-rule="evenodd" clip-rule="evenodd" d="M676.264 820.052C646.878 837.873 614.258 852.07 582.812 865.921C542.566 883.659 501.41 900.284 459.005 911.372C434.107 917.878 404.731 925.061 379.291 917.601C370.215 914.938 363.435 908.955 355.655 903.674C346.788 897.647 337.579 892.125 328.37 886.689C309.414 875.5 290.257 864.693 270.9 854.267C260.648 848.723 249.362 841.299 237.779 839.375C228.571 837.844 218.11 840.06 208.86 840.704C192.203 841.864 175.549 843.06 158.884 844.076C139.655 845.247 120.371 846.328 101.101 846.14C90.3605 846.036 71.9225 847.761 64.3269 840.438C57.7 834.047 81.827 810.934 86.0699 806.543C99.3203 792.832 113.256 779.777 125.589 765.116C132.878 756.47 141.752 745.955 144.825 734.496C147.441 724.73 142.394 713.602 139.413 704.574C135.685 693.267 132.677 681.544 128.345 670.474C124.488 660.611 118.348 651.825 112.956 642.859C107.025 632.995 101.019 622.97 96.6156 612.21C93.9178 605.588 89.4532 594.5 94.8148 588.189C101.009 580.912 120.101 585.667 127.949 586.705C143.87 588.837 159.669 592.008 175.48 594.846C201.742 599.558 226.78 603.679 253.523 602.692C288.349 601.403 323.141 598.369 357.961 596.691C370.819 596.064 383.882 594.803 396.75 595.484C404.128 595.876 409.745 598.254 414.036 603.618C419.895 610.938 433.391 614.991 442.777 619.191C457.412 625.737 472.232 631.825 487.01 637.992C519.452 651.537 552.519 664.592 583.286 682.11C593.02 687.65 604.166 693.829 611.366 702.982C615.384 708.087 614.371 713.004 616.823 718.429C620.07 725.565 630.746 728.786 637.127 731.12C649.443 735.63 662.263 738.653 674.985 741.484C703.771 747.889 732.625 752.101 761.879 755.202C768.734 755.923 795.729 758.419 781.551 770.451C765.886 783.747 743.267 790.264 724.825 797.757C708.212 804.493 691.585 810.762 676.264 820.052Z" stroke="white"/>
<path fill-rule="evenodd" clip-rule="evenodd" d="M635.653 816.756C608.031 832.435 577.432 844.131 547.683 855.32C511.583 868.898 474.578 881.001 436.717 887.781C412.933 892.036 386.711 895.305 363.087 888.234C346.954 883.407 334.475 870.358 320.305 861.381C306.136 852.404 291.393 843.976 276.209 836.952C266.786 832.593 256.648 828.201 246.163 828.777C220.668 830.172 195.204 833.499 169.682 835.114C152.798 836.193 135.88 837.082 118.945 836.815C108.733 836.657 94.7032 837.305 85.662 831.636C75.6683 825.367 128.881 771.841 133.91 765.816C146.519 750.71 161.788 730.662 159.35 709.179C157.018 688.641 146.912 673.308 135.481 657.217C128.993 648.063 108.19 623.609 115.899 611.704C120.304 604.899 134.822 607.255 141.719 607.719C155.311 608.632 168.828 610.596 182.349 612.301C202.063 614.772 222.321 618.588 242.12 619.707C255.908 620.483 269.776 619.444 283.587 619.422C303.391 619.394 323.194 619.552 342.997 619.739C359.625 619.897 376.392 619.739 392.962 621.422C403.263 622.458 411.082 624.785 418.471 631.36C424.9 637.079 434.6 640.427 442.794 644.063C456.329 650.066 470.041 655.631 483.708 661.285C512.324 673.125 541.267 684.717 568.657 699.514C581.16 706.265 602.182 715.717 605.115 732.086C606.174 737.988 606.952 740.538 612.415 743.894C620.169 748.656 629.456 750.803 638.156 752.67C658.437 757.022 679.305 756.371 699.552 760.673C707.798 762.446 718.563 766.273 709.15 775.034C698.166 785.282 682.177 790.914 669.018 797.244C662.449 800.402 655.681 803.359 649.443 807.214C644.653 810.185 640.552 813.994 635.653 816.756Z" stroke="white"/>
<path fill-rule="evenodd" clip-rule="evenodd" d="M583.336 811.862C557.817 824.595 530.102 833.854 502.885 842.2C472.655 851.459 441.695 859.127 410.326 862.39C388.665 864.651 365.587 865.317 344.564 858.399C331.269 854.022 322.256 844.818 310.815 837.099C293.549 825.432 274.868 816.188 254.125 818.438C230.869 820.954 207.537 822.842 184.129 824.102C170.009 824.862 155.835 825.432 141.698 824.902C132.76 824.57 121.244 824.011 113.468 819.739C103.064 814.017 142.144 770.48 147.016 764.134C159.097 748.397 167.954 731.885 173.128 712.387C177.349 696.477 168.727 683.97 159.833 672.069C154.304 664.678 136.438 646.089 142.032 636.492C145.1 631.199 155.211 631.473 160.641 631.203C170.991 630.691 181.385 631.225 191.734 631.459C207.017 631.819 223.284 629.343 238.437 631.336C272.018 635.749 305.514 639.571 339.304 642.596C357.93 644.261 376.669 645.776 395.129 648.988C401.756 650.142 408.601 651.364 414.88 653.974C418.92 655.651 421.122 658.506 424.531 660.849C440.785 672.004 462.002 677.744 480.308 684.893C504.644 694.397 529.11 703.753 552.799 714.98C565.259 720.885 582.661 727.67 591.235 739.723C593.825 743.364 592.721 746.277 594.35 749.778C596.225 753.816 601.922 755.02 605.6 756.145C613.948 758.701 648.893 762.566 632.79 777.561C625.106 784.703 615.315 789.285 606.653 794.899C603.517 796.932 600.459 798.976 597.845 801.72C593.471 806.32 589.162 808.945 583.336 811.862Z" stroke="white"/>
<path fill-rule="evenodd" clip-rule="evenodd" d="M527.593 806.348C477.214 826.95 418.173 840.986 363.248 838.267C344.983 837.359 325.331 834.33 309.498 823.964C300.162 817.841 292.702 810.93 281.487 808.718C273.391 807.123 264.674 808.934 256.53 809.59C244.735 810.541 232.933 811.391 221.12 812.079C206.476 812.918 191.784 813.566 177.112 813.22C166.629 812.972 152.152 813.253 143.045 807.31C132.172 800.222 159.848 766.971 163.742 761.046C173.181 746.686 179.797 732.772 182.189 715.466C182.892 710.423 185.263 705.255 184.956 700.173C184.634 694.983 181.604 690.362 178.807 686.281C175.148 680.933 162.455 668.247 166.089 661.725C168.098 658.123 175.637 657.669 179.545 656.905C186.875 655.465 194.312 654.69 201.687 653.545C214.2 651.593 226.623 645.236 239.18 645.416C272.947 645.891 307.202 656.941 340.293 663.01C359.965 666.63 379.771 669.915 399.204 674.817C405.353 676.369 411.686 677.976 417.531 680.608C421.609 682.445 424.229 685.719 428.007 687.776C442.495 695.674 459.154 700.468 474.71 705.784C494.906 712.7 515.169 719.406 535.224 726.768C547.795 731.382 563.959 735.441 574.791 743.999C582.702 750.248 577.295 752.117 573.121 757.937C570.989 760.905 571.481 763.83 570.555 767.19C569.233 771.988 565.496 775.442 561.991 778.546C557.158 782.836 550.719 786.369 546.767 791.628C545.373 793.479 545.438 795.777 544.31 797.391C541.031 802.091 532.331 804.41 527.593 806.348Z" stroke="white"/>
<path fill-rule="evenodd" clip-rule="evenodd" d="M474.03 799.008C433.142 811.961 387.648 819.336 344.428 815.913C329.39 814.721 314.26 811.95 300.253 805.865C293.88 803.105 289.096 800.028 282.112 799.862C265.908 799.48 249.654 800.817 233.453 801.138C221.86 801.368 210.208 801.451 198.642 800.468C190.908 799.812 180.45 799.026 174.115 794.022C164.908 786.733 181.528 761.956 184.91 755.11C190.516 743.757 196.078 731.136 193.854 718C193.172 713.982 191.965 710.434 191.809 706.337C191.658 702.817 192.078 699.567 190.895 696.202C189.432 692.03 182.926 685.555 185.163 681.715C186.687 679.092 191.208 678.969 194.216 678.13C199.094 676.768 203.857 674.982 208.456 672.79C213.298 670.47 217.42 666.885 222.436 664.968C230.579 661.862 239.693 661.57 248.252 661.584C282.402 661.643 316.985 668.751 350.269 676.184C367.601 680.054 385.029 684.179 401.874 690.048C406.989 691.832 412.785 693.622 417.283 696.915C420.089 698.965 421.992 701.534 425.18 703.076C452.415 716.242 483.902 721.131 512.814 730.639C520.34 733.114 562.046 745.62 540.24 757.384C526.992 764.532 512.995 767.782 500.907 777.56C497.224 780.533 494.769 782.993 493.33 787.529C492.382 790.549 494.663 789.017 491.478 792.174C487.615 795.968 478.794 797.499 474.03 799.008Z" stroke="white"/>
<path fill-rule="evenodd" clip-rule="evenodd" d="M431.516 791.349C383.646 801.922 332.951 802.425 284.325 793.052C272.067 790.692 259.309 791.256 246.901 790.656C234.844 790.081 213.409 791.277 204.652 781.495C198.302 774.404 205.192 759.334 207.575 751.402C210.612 741.297 213.265 730.857 208.28 721.043C205.36 715.295 201.359 709.824 198.227 704.13C196.729 701.411 193.645 697.244 194.931 694.668C197.057 690.418 207.008 688.629 211.836 686.625C227.267 680.219 243.608 678.585 260.106 678.631C290.579 678.714 321.209 683.111 351.101 689.075C364.853 691.819 378.797 694.747 392.061 699.518C399.566 702.215 405.102 707.421 412.269 710.507C435.346 720.45 460.139 725.763 483.613 734.856C490.407 737.489 515.785 746.254 503 756.59C490.622 766.594 472.568 765.405 459.698 774.817C458.241 775.895 456.439 777.185 455.595 778.927C455.096 779.969 455.974 781.952 455.595 782.544C451.642 788.986 437.592 790.009 431.516 791.349Z" stroke="white"/>
<path fill-rule="evenodd" clip-rule="evenodd" d="M400.502 784.362C375.943 787.916 350.844 788.797 325.872 789.021C312.221 789.144 297.224 790.062 283.868 786.414C275.664 784.167 267.739 782.202 259.282 780.786C250.182 779.262 235.53 778.153 229.989 769.893C225.849 763.72 228.686 751.031 228.837 743.526C228.997 735.294 227.397 729.19 221.89 723.299C218.427 719.59 202.541 706.124 204.377 702.242C206.124 698.543 217.193 697.976 221.979 697.015C237.106 693.967 252.435 692.905 267.821 693.071C291.652 693.324 315.572 695.888 339.03 700.295C348.728 702.126 358.751 704.022 368.015 707.681C374.254 710.148 379.457 714.522 385.655 717.072C403.404 724.386 422.172 729.353 439.982 736.8C445.698 739.195 464.322 745.57 459.858 755.395C456.135 763.597 443.473 766.093 437.251 771.59C426.667 780.967 413.998 782.412 400.502 784.362Z" stroke="white"/>
<path fill-rule="evenodd" clip-rule="evenodd" d="M385.03 779.648C365.549 782.001 345.614 783.03 325.847 783.08C313.089 783.113 299.631 783.296 287.112 780.27C280.823 778.752 275.359 775.201 269.407 772.668C263.279 770.064 254.822 767.157 252.173 761.184C249.684 755.572 250.614 747.383 248.428 740.616C246.484 734.611 242.415 730.902 238.033 726.844C235.242 724.25 220.904 713.021 222.562 710.542C224.34 707.887 232.95 708.103 237.431 707.736C249.776 706.707 262.164 706.379 274.542 706.754C291.436 707.301 308.459 708.826 325.06 712.28C336.837 714.726 345.72 720.555 356.7 724.829C370.925 730.38 385.66 734.77 399.749 740.843C406.769 743.868 417.16 747.761 420.756 755.572C422.138 758.565 423.479 766.178 421.94 769.171C420.092 772.769 413.211 774.295 409.963 775.219C401.826 777.525 393.31 778.648 385.03 779.648Z" stroke="white"/>
</svg>
