<svg width="30" height="30" viewBox="0 0 30 30" fill="none" xmlns="http://www.w3.org/2000/svg">
<path d="M3.75 8.75V15C3.75 15.9946 4.14509 16.9484 4.84835 17.6517C5.55161 18.3549 6.50544 18.75 7.5 18.75C8.49456 18.75 9.44839 18.3549 10.1517 17.6517C10.8549 16.9484 11.25 15.9946 11.25 15V8.75H12.5L17.5 16.25C18.53 17.8988 19.9313 18.75 21.875 18.75C23.0353 18.75 24.1481 18.2891 24.9686 17.4686C25.7891 16.6481 26.25 15.5353 26.25 14.375C26.25 13.2147 25.7891 12.1019 24.9686 11.2814C24.1481 10.4609 23.0353 10 21.875 10C19.3413 10 17.9538 11.25 17.5 13.75C17.1975 15.4125 16.365 18.75 15 23.75" stroke="#4998A9" stroke-width="3" stroke-linecap="round" stroke-linejoin="round"/>
</svg>
